# Blender v2.76 (sub 0) OBJ File: ''
# www.blender.org
mtllib Horizon.mtl
o pCylinder1
v 18.990213 -1.757866 -6.170294
v 18.990213 1.757868 -6.170293
v 16.154041 1.757869 -11.736597
v 16.154041 -1.757865 -11.736597
v 11.736597 1.757870 -16.154039
v 11.736597 -1.757864 -16.154039
v 6.170293 1.757870 -18.990211
v 6.170293 -1.757864 -18.990211
v 0.000000 1.757870 -19.967487
v 0.000000 -1.757864 -19.967487
v -6.170293 1.757870 -18.990210
v -6.170293 -1.757864 -18.990210
v -11.736594 1.757870 -16.154036
v -11.736594 -1.757864 -16.154036
v -16.154036 1.757869 -11.736593
v -16.154036 -1.757865 -11.736593
v -18.990206 1.757868 -6.170291
v -18.990206 -1.757866 -6.170292
v -19.967484 1.757867 0.000000
v -19.967484 -1.757867 -0.000000
v -18.990206 1.757866 6.170292
v -18.990206 -1.757868 6.170291
v -16.154034 1.757865 11.736592
v -16.154034 -1.757869 11.736592
v -11.736592 1.757864 16.154032
v -11.736592 -1.757870 16.154032
v -6.170292 1.757864 18.990204
v -6.170292 -1.757870 18.990204
v -0.000001 1.757864 19.967482
v -0.000001 -1.757870 19.967482
v 6.170290 1.757864 18.990202
v 6.170290 -1.757870 18.990202
v 11.736589 1.757864 16.154032
v 11.736589 -1.757870 16.154032
v 16.154030 1.757865 11.736591
v 16.154030 -1.757869 11.736591
v 18.990202 1.757866 6.170290
v 18.990202 -1.757868 6.170290
v 19.967480 1.757867 0.000000
v 19.967480 -1.757867 -0.000000
vt 0.643409 0.339801
vt 0.643426 0.616396
vt 0.596168 0.616426
vt 0.596151 0.339830
vt 0.548910 0.616455
vt 0.548894 0.339860
vt 0.501652 0.616484
vt 0.501636 0.339889
vt 0.454395 0.616513
vt 0.454378 0.339918
vt 0.407137 0.616542
vt 0.407121 0.339947
vt 0.359879 0.616571
vt 0.359863 0.339976
vt 0.312622 0.616601
vt 0.312605 0.340006
vt 0.265364 0.616630
vt 0.265347 0.340035
vt 0.218106 0.616659
vt 0.218090 0.340064
vt 0.170849 0.616688
vt 0.170832 0.340093
vt 0.123591 0.616718
vt 0.123575 0.340122
vt 0.076333 0.616747
vt 0.076317 0.340152
vt 0.029076 0.616776
vt 0.029059 0.340181
vt 0.974213 0.339597
vt 0.974230 0.616192
vt 0.926972 0.616221
vt 0.926956 0.339626
vt 0.879714 0.616251
vt 0.879698 0.339655
vt 0.832457 0.616280
vt 0.832440 0.339685
vt 0.785199 0.616309
vt 0.785182 0.339714
vt 0.737941 0.616338
vt 0.737925 0.339743
vt 0.690683 0.616367
vt 0.690667 0.339772
vn -0.951100 0.000000 0.309000
vn -0.809000 0.000000 0.587800
vn -0.587800 0.000000 0.809000
vn -0.309000 0.000000 0.951100
vn 0.000000 0.000000 1.000000
vn 0.309000 0.000000 0.951100
vn 0.587800 0.000000 0.809000
vn 0.809000 -0.000000 0.587800
vn 0.951100 0.000000 0.309000
vn 1.000000 -0.000000 0.000000
vn 0.951100 -0.000000 -0.309000
vn 0.809000 -0.000000 -0.587800
vn 0.587800 0.000000 -0.809000
vn 0.309000 0.000000 -0.951100
vn -0.000000 0.000000 -1.000000
vn -0.309000 0.000000 -0.951100
vn -0.587800 0.000000 -0.809000
vn -0.809000 0.000000 -0.587800
vn -0.951100 -0.000000 -0.309000
vn -1.000000 0.000000 -0.000000
usemtl initialShadingGroup
s 1
f 1/1/1 2/2/1 3/3/2 4/4/2
f 4/4/2 3/3/2 5/5/3 6/6/3
f 6/6/3 5/5/3 7/7/4 8/8/4
f 8/8/4 7/7/4 9/9/5 10/10/5
f 10/10/5 9/9/5 11/11/6 12/12/6
f 12/12/6 11/11/6 13/13/7 14/14/7
f 14/14/7 13/13/7 15/15/8 16/16/8
f 16/16/8 15/15/8 17/17/9 18/18/9
f 18/18/9 17/17/9 19/19/10 20/20/10
f 20/20/10 19/19/10 21/21/11 22/22/11
f 22/22/11 21/21/11 23/23/12 24/24/12
f 24/24/12 23/23/12 25/25/13 26/26/13
f 26/26/13 25/25/13 27/27/14 28/28/14
f 28/29/14 27/30/14 29/31/15 30/32/15
f 30/32/15 29/31/15 31/33/16 32/34/16
f 32/34/16 31/33/16 33/35/17 34/36/17
f 34/36/17 33/35/17 35/37/18 36/38/18
f 36/38/18 35/37/18 37/39/19 38/40/19
f 38/40/19 37/39/19 39/41/20 40/42/20
f 40/42/20 39/41/20 2/2/1 1/1/1
